<svg width="32" height="32" viewBox="0 0 32 32" fill="none" xmlns="http://www.w3.org/2000/svg">
<path d="M22.7188 4.46251C23.3125 3.96876 24.1437 3.85626 24.85 4.18751C25.5563 4.51875 26 5.22501 26 6.00001L26 26C26 26.775 25.55 27.4813 24.85 27.8125C24.15 28.1438 23.3187 28.0375 22.7188 27.5375L10.7188 17.5375L10 16.9375L10 26C10 27.1063 9.10625 28 8 28C6.89375 28 6 27.1063 6 26L6 6.00001C6 4.89375 6.89375 4.00001 8 4.00001C9.10625 4.00001 10 4.89375 10 6.00001V15.0625L10.7188 14.4625L22.7188 4.46251Z" fill="white"/>
</svg>
