<svg width="45" height="45" viewBox="0 0 45 45" fill="none" xmlns="http://www.w3.org/2000/svg">
<path d="M36.5625 5.625H8.4375C7.69158 5.625 6.97621 5.92132 6.44876 6.44876C5.92132 6.97621 5.625 7.69158 5.625 8.4375V36.5625C5.625 37.3084 5.92132 38.0238 6.44876 38.5512C6.97621 39.0787 7.69158 39.375 8.4375 39.375H36.5625C37.3084 39.375 38.0238 39.0787 38.5512 38.5512C39.0787 38.0238 39.375 37.3084 39.375 36.5625V8.4375C39.375 7.69158 39.0787 6.97621 38.5512 6.44876C38.0238 5.92132 37.3084 5.625 36.5625 5.625ZM11.25 12.6562H33.75C34.123 12.6562 34.4806 12.8044 34.7444 13.0681C35.0081 13.3319 35.1562 13.6895 35.1562 14.0625C35.1562 14.4355 35.0081 14.7931 34.7444 15.0569C34.4806 15.3206 34.123 15.4688 33.75 15.4688H11.25C10.877 15.4688 10.5194 15.3206 10.2556 15.0569C9.99191 14.7931 9.84375 14.4355 9.84375 14.0625C9.84375 13.6895 9.99191 13.3319 10.2556 13.0681C10.5194 12.8044 10.877 12.6562 11.25 12.6562ZM11.25 21.0938H23.9062C24.2792 21.0938 24.6369 21.2419 24.9006 21.5056C25.1643 21.7694 25.3125 22.127 25.3125 22.5C25.3125 22.873 25.1643 23.2306 24.9006 23.4944C24.6369 23.7581 24.2792 23.9062 23.9062 23.9062H11.25C10.877 23.9062 10.5194 23.7581 10.2556 23.4944C9.99191 23.2306 9.84375 22.873 9.84375 22.5C9.84375 22.127 9.99191 21.7694 10.2556 21.5056C10.5194 21.2419 10.877 21.0938 11.25 21.0938ZM18.2812 32.3438H11.25C10.877 32.3438 10.5194 32.1956 10.2556 31.9319C9.99191 31.6681 9.84375 31.3105 9.84375 30.9375C9.84375 30.5645 9.99191 30.2069 10.2556 29.9431C10.5194 29.6794 10.877 29.5312 11.25 29.5312H18.2812C18.6542 29.5312 19.0119 29.6794 19.2756 29.9431C19.5393 30.2069 19.6875 30.5645 19.6875 30.9375C19.6875 31.3105 19.5393 31.6681 19.2756 31.9319C19.0119 32.1956 18.6542 32.3438 18.2812 32.3438ZM36.4904 22.9447C36.432 23.1199 36.3397 23.2819 36.2187 23.4215C36.0977 23.561 35.9504 23.6753 35.7852 23.7579C35.62 23.8405 35.4402 23.8898 35.256 23.9028C35.0717 23.9159 34.8867 23.8926 34.7115 23.8342L32.3438 23.0449V30.9375C32.344 31.8331 32.0593 32.7055 31.5307 33.4285C31.0022 34.1515 30.2573 34.6876 29.4038 34.9591C28.5504 35.2305 27.6326 35.2234 26.7835 34.9386C25.9344 34.6538 25.198 34.1062 24.6808 33.375C24.1636 32.6439 23.8925 31.7671 23.9068 30.8716C23.9211 29.9761 24.2199 29.1084 24.7601 28.3941C25.3004 27.6798 26.0539 27.1559 26.9116 26.8983C27.7694 26.6407 28.6869 26.6628 29.5312 26.9613V21.0938C29.5312 20.8709 29.5842 20.6513 29.6857 20.4529C29.7872 20.2545 29.9345 20.0832 30.1152 19.9529C30.296 19.8226 30.5051 19.7371 30.7254 19.7035C30.9457 19.6699 31.1708 19.6891 31.3822 19.7596L35.601 21.1658C35.7762 21.2242 35.9382 21.3165 36.0777 21.4375C36.2172 21.5586 36.3316 21.7059 36.4142 21.871C36.4968 22.0362 36.546 22.2161 36.5591 22.4003C36.5722 22.5845 36.5488 22.7695 36.4904 22.9447Z" fill="white"/>
</svg>
