<svg width="42" height="42" viewBox="0 0 42 42" fill="none" xmlns="http://www.w3.org/2000/svg">
<path d="M37.6667 0.166656H12.6667C10.375 0.166656 8.50002 2.04166 8.50002 4.33332V29.3333C8.50002 31.625 10.375 33.5 12.6667 33.5H37.6667C39.9584 33.5 41.8334 31.625 41.8334 29.3333V4.33332C41.8334 2.04166 39.9584 0.166656 37.6667 0.166656ZM33.5 10.5833H27.25V22.0417C27.25 23.423 26.7013 24.7478 25.7245 25.7245C24.7478 26.7013 23.423 27.25 22.0417 27.25C20.6604 27.25 19.3356 26.7013 18.3588 25.7245C17.3821 24.7478 16.8334 23.423 16.8334 22.0417C16.8334 20.6603 17.3821 19.3356 18.3588 18.3588C19.3356 17.3821 20.6604 16.8333 22.0417 16.8333C23.2292 16.8333 24.2917 17.2292 25.1667 17.8958V6.41666H33.5V10.5833ZM4.33335 8.49999H0.166687V37.6667C0.166687 39.9583 2.04169 41.8333 4.33335 41.8333H33.5V37.6667H4.33335V8.49999Z" fill="white"/>
</svg>
